Coordinates
version=1
nRows=16
nColumns=42
inDegrees=yes

Units are S.I. units (second, meters, Newtons, ...)
If the header above contains a line with 'inDegrees', this indicates whether rotational values are in degrees (yes) or radians (no).

endheader
time	pelvis_tilt	pelvis_list	pelvis_rotation	pelvis_tx	pelvis_ty	pelvis_tz	hip_flexion_r	hip_adduction_r	hip_rotation_r	knee_angle_r	knee_adduction_r	knee_angle_r_beta	ankle_angle_r	subtalar_angle_r	mtp_angle_r	hip_flexion_l	hip_adduction_l	hip_rotation_l	knee_angle_l	knee_adduction_l	knee_angle_l_beta	ankle_angle_l	subtalar_angle_l	mtp_angle_l	lumbar_extension	lumbar_bending	lumbar_rotation	arm_flex_r	arm_add_r	arm_rot_r	elbow_flex_r	pro_sup_r	wrist_flex_r	wrist_dev_r	arm_flex_l	arm_add_l	arm_rot_l	elbow_flex_l	pro_sup_l	wrist_flex_l	wrist_dev_l
      1.80000000	     -1.29391461	     -6.62146483	      2.19273627	      0.73856350	      0.85416855	     -0.36760603	     12.25580655	      6.75628137	      0.91473517	     13.07050614	      8.03078663	      0.22812337	      1.40819236	     -8.84441789	     -7.50667710	      3.88727362	    -13.95385613	      0.27485760	     61.50958045	     12.27688638	      1.07354470	     -3.83217362	    -15.61348739	     -7.50667710	     -5.92174016	      8.91685995	     -3.24936393	     -6.52772316	    -12.03662758	     -5.45802298	     23.49565053	     90.00000001	      0.00000000	      0.00000000	     -7.91561676	     -9.95974216	    -11.67909853	     42.77014478	     90.00000001	      0.00000000	      0.00000000
      1.81000000	     -1.38044041	     -6.48020252	      2.06510800	      0.75023521	      0.85569298	     -0.36709666	     11.11974933	      6.71664002	      1.11075611	     12.39419101	      7.99706564	      0.21631944	      1.96467094	     -8.32384456	     -7.50649606	      6.08714249	    -13.80737453	      0.24361447	     63.89811785	     11.63642711	      1.11523254	     -2.79859605	    -15.88953357	     -7.50649606	     -5.89854083	      8.63506345	     -2.67174048	     -6.12525219	    -12.08797121	     -5.07406704	     23.53385937	     90.00000001	      0.00000000	      0.00000000	     -7.76660053	     -9.80017558	    -11.90488358	     41.51878158	     90.00000001	      0.00000000	      0.00000000
      1.82000000	     -1.38045786	     -6.23340072	      1.97971439	      0.76176871	      0.85723548	     -0.36671613	      9.86479471	      6.52246214	      1.17667715	     11.66818668	      7.99737798	      0.20364828	      2.55448459	     -7.72503787	     -7.50636206	      8.16800452	    -13.48183242	      0.23991127	     65.84908000	     11.02150618	      1.14928326	     -1.43258921	    -16.06258388	     -7.50636206	     -5.98520587	      8.23067393	     -2.15637134	     -5.64788814	    -12.13237045	     -4.73935639	     23.61500987	     90.00000001	      0.00000000	      0.00000000	     -7.63791187	     -9.69372489	    -12.06515459	     40.34406816	     90.00000001	      0.00000000	      0.00000000
      1.83000000	     -1.49858511	     -5.96626957	      1.90723992	      0.77312141	      0.85853676	     -0.36642104	      8.69361218	      6.29853223	      1.21591778	     10.80667207	      7.95980639	      0.18861201	      3.10419738	     -7.02429747	     -7.50621472	     10.39800702	    -13.08216377	      0.24005746	     67.44950490	     10.42592665	      1.17721594	      0.00949035	    -15.98474225	     -7.50621472	     -5.93003658	      7.80148640	     -1.68024014	     -5.14534068	    -12.19741361	     -4.31530895	     23.74318499	     90.00000001	      0.00000000	      0.00000000	     -7.45777262	     -9.57293305	    -12.35861375	     39.05418328	     90.00000001	      0.00000000	      0.00000000
      1.84000000	     -1.59411935	     -5.64790862	      1.85352141	      0.78423326	      0.85970775	     -0.36614693	      7.53458042	      6.00704189	      1.16525688	      9.98771730	      7.93267295	      0.17431855	      3.62344691	     -6.33554193	     -7.50608942	     12.58234437	    -12.58756599	      0.26467636	     68.63973450	      9.90831244	      1.19798936	      1.53879473	    -15.85810595	     -7.50608942	     -5.94103755	      7.30247712	     -1.25028840	     -4.56394768	    -12.25937335	     -3.92126811	     23.93342941	     90.00000001	      0.00000000	      0.00000000	     -7.29679426	     -9.51133740	    -12.62661879	     37.87709025	     90.00000001	      0.00000000	      0.00000000
      1.85000000	     -1.71080155	     -5.30408300	      1.80047497	      0.79515286	      0.86069156	     -0.36595248	      6.41851067	      5.68845506	      1.08993468	      9.18715459	      7.87956773	      0.16034610	      4.10877684	     -5.62586704	     -7.50597786	     14.76346755	    -11.99626153	      0.33168178	     69.44007290	      9.46168236	      1.21195790	      3.03380693	    -15.61142312	     -7.50597786	     -5.94618189	      6.77669813	     -0.85695219	     -3.92317406	    -12.34460481	     -3.54372921	     24.18112577	     90.00000001	      0.00000000	      0.00000000	     -7.13315124	     -9.45189593	    -12.89936030	     36.75709953	     90.00000001	      0.00000000	      0.00000000
      1.86000000	     -1.90569872	     -4.95852027	      1.76964519	      0.80605578	      0.86140163	     -0.36578790	      5.35507694	      5.32381882	      0.98389006	      8.29195837	      7.90726816	      0.14472197	      4.60310737	     -4.85152984	     -7.50583781	     16.95286853	    -11.40178648	      0.44190391	     69.79319071	      9.16047896	      1.21812097	      4.48472910	    -15.10414185	     -7.50583781	     -5.83874656	      6.24309441	     -0.52469063	     -3.29186387	    -12.46951382	     -3.02536122	     24.46319960	     90.00000001	      0.00000000	      0.00000000	     -6.93313354	     -9.39200149	    -13.39018642	     35.49850330	     90.00000001	      0.00000000	      0.00000000
      1.87000000	     -2.06936050	     -4.61684119	      1.75098970	      0.81689583	      0.86189801	     -0.36575909	      4.30944767	      4.98921855	      0.85234029	      7.51599891	      7.85213834	      0.13117893	      5.08800370	     -4.15859815	     -7.50572721	     19.05690902	    -10.74556152	      0.55062847	     69.80985086	      8.89125493	      1.21841175	      5.91955978	    -14.79598778	     -7.50572721	     -5.76160710	      5.73162647	     -0.25180000	     -2.60263455	    -12.56144248	     -2.62069747	     24.79066024	     90.00000001	      0.00000000	      0.00000000	     -6.83651417	     -9.33295240	    -13.70634151	     34.42174350	     90.00000001	      0.00000000	      0.00000000
      1.88000000	     -2.21393705	     -4.26574983	      1.72381315	      0.82761899	      0.86222658	     -0.36577348	      3.24749945	      4.59103079	      0.75727927	      6.70714616	      7.91758896	      0.11706178	      5.56963336	     -3.39196121	     -7.50558568	     21.03136877	    -10.11040179	      0.73868353	     69.39848627	      8.86656415	      1.21123208	      7.14425042	    -14.24708668	     -7.50558568	     -5.72605932	      5.21808417	      0.01276795	     -1.88819375	    -12.71345287	     -2.07651809	     25.17083676	     90.00000001	      0.00000000	      0.00000000	     -6.66145799	     -9.25546786	    -14.26409886	     33.26421887	     90.00000001	      0.00000000	      0.00000000
      1.89000000	     -2.30928093	     -3.93846329	      1.66963331	      0.83838681	      0.86236314	     -0.36575325	      2.16756644	      4.24874532	      0.62341626	      5.98199464	      7.92657778	      0.10440550	      6.05726478	     -2.67313471	     -7.50542088	     22.82347888	     -9.50877509	      0.90931643	     68.57053324	      8.92469433	      1.19678157	      8.24085840	    -13.81128008	     -7.50542088	     -5.74605674	      4.72623830	      0.27169963	     -1.14579818	    -12.88241361	     -1.50561878	     25.60458308	     90.00000001	      0.00000000	      0.00000000	     -6.52458776	     -9.20147819	    -14.85068526	     32.22887105	     90.00000001	      0.00000000	      0.00000000
      1.90000000	     -2.34231240	     -3.91253703	      1.37555136	      0.84849804	      0.86221082	     -0.36511070	      1.45040171	      4.31365024	      0.19860025	      6.07988552	      7.88471184	      0.10611402	      6.23099298	     -2.49230612	     -7.50536555	     24.58568637	     -9.46740263	      0.78044912	     67.66062197	      8.94561529	      1.18090063	      8.43123659	    -13.32489528	     -7.50536555	     -6.00756485	      4.52664281	      0.75673045	     -0.20075729	    -13.01997230	     -1.43467632	     26.16732021	     90.00000001	      0.00000000	      0.00000000	     -6.67455496	     -9.26899637	    -14.87006591	     32.13187862	     90.00000001	      0.00000000	      0.00000000
      1.91000000	     -2.34675184	     -3.36410097	      1.50150006	      0.85999932	      0.86213206	     -0.36566336	     -0.06875619	      3.67717844	      0.43743409	      4.72210857	      7.91395176	      0.08241634	      7.02784308	     -1.39998832	     -7.50511505	     25.83855908	     -8.48605721	      1.13381524	     65.76436078	      9.24425782	      1.14780463	      9.83082874	    -13.57724367	     -7.50511505	     -5.94924283	      3.84669524	      0.74420930	      0.43242196	    -13.22046586	     -0.49528065	     26.57791227	     90.00000001	      0.00000000	      0.00000000	     -6.36849700	     -9.14475916	    -15.97294766	     30.41665406	     90.00000001	      0.00000000	      0.00000000
      1.92000000	     -2.55950866	     -3.32561397	      1.35597030	      0.87074571	      0.86136467	     -0.36535452	     -0.81064617	      3.73502856	      0.21741111	      4.41705589	      7.79089339	      0.07709217	      7.48643043	     -1.01448305	     -7.50503214	     27.46459737	     -8.35370848	      0.97390799	     63.98903957	      9.25560831	      1.11681943	     10.33590490	    -13.42299730	     -7.50503214	     -5.82287204	      3.67505160	      1.02798800	      1.20432325	    -13.34796350	     -0.31944183	     27.07002094	     90.00000001	      0.00000000	      0.00000000	     -6.51434530	     -9.18874793	    -16.05218529	     29.90691900	     90.00000001	      0.00000000	      0.00000000
      1.93000000	     -2.59048863	     -3.09607153	      1.21647679	      0.88155145	      0.86064498	     -0.36534215	     -1.90501738	      3.46724164	      0.43651190	      3.77340396	      7.87304514	      0.06585832	      8.11509376	     -0.31305566	     -7.50491322	     28.66121508	     -8.00830236	      0.99267592	     61.76265701	      9.56722830	      1.07796172	     10.95437797	    -13.58319012	     -7.50491322	     -5.90238858	      3.31810442	      1.29210374	      2.04169815	    -13.53288064	      0.08629817	     27.60290283	     90.00000001	      0.00000000	      0.00000000	     -6.39504136	     -9.19017307	    -16.48049336	     28.92291179	     90.00000001	      0.00000000	      0.00000000
      1.94000000	     -2.41796420	     -2.88054594	      0.98222731	      0.89252487	      0.86003216	     -0.36523058	     -3.13298498	      3.21707053	      0.48423325	      3.35660414	      7.95495161	      0.05858379	      8.65190304	      0.21622965	     -7.50475690	     29.40459771	     -7.80321579	      0.68370158	     59.11800378	      9.78970495	      1.03180381	     11.18528909	    -13.81323126	     -7.50475690	     -6.21788325	      2.98412365	      1.61477359	      2.88233455	    -13.72988665	      0.56193350	     28.19046924	     90.00000001	      0.00000000	      0.00000000	     -6.32551341	     -9.15656274	    -17.09985698	     28.17855193	     90.00000001	      0.00000000	      0.00000000
      1.95000000	     -2.61693300	     -3.17065960	      0.85638403	      0.90331551	      0.85857109	     -0.36490248	     -3.71092216	      3.61694401	      0.07181905	      3.44836961	      7.89994002	      0.06018540	      9.00146855	      0.35003703	     -7.50469658	     30.72216584	     -8.16667584	      0.11269524	     56.61709596	      9.58980234	      0.98815474	     11.20324271	    -13.44676199	     -7.50469658	     -6.10173395	      3.20008179	      1.82331361	      3.71090708	    -13.89821350	      0.64002401	     28.77698514	     90.00000001	      0.00000000	      0.00000000	     -6.61239865	     -9.17874947	    -17.15498045	     28.02227150	     90.00000001	      0.00000000	      0.00000000
